<svg xmlns="http://www.w3.org/2000/svg" id="Layer_1" data-name="Layer 1" viewBox="0 0 247.89 247.52">
  <defs>
    <style>
      .cls-1 {
        fill: #4ebf95;
      }
    </style>
  </defs>
  <path class="cls-1" d="M124,247.52C55.6,247.55.05,192.13,0,123.81-.05,55.54,55.46.07,123.9,0c68.36-.07,123.95,55.4,123.99,123.71.04,68.29-55.48,123.77-123.9,123.81M119.3,73.47v66.81c0,3.47.22,6.91.91,10.31,1.73,8.46,5.42,15.75,12.53,21,11.24,8.3,31.25,9.26,44.24-1.83,2.61-2.23,4.94-4.74,7.57-7.71v13.49h35.96v-101.97h-36v54.74c0,1.89-.11,3.76-.47,5.63-1.31,6.79-6.62,11.59-13.21,11.92-7.31.36-12.56-3.27-14.61-10.19-.62-2.11-.92-4.29-.91-6.51v-53.65c0-.66.21-1.37-.24-2.05h-35.77ZM110,83.31c-.68-.44-1.2-.79-1.74-1.1-14.09-8.22-29.33-11.61-45.53-10.66-7.47.44-14.55,2.44-21.08,6.3-16.48,9.73-17.77,30.84-11.42,41.99,3.74,6.56,9.83,10.24,16.49,13.16,6.92,3.03,14.29,4.65,21.48,6.8,2.88.86,5.78,1.69,8.41,3.21,2.24,1.3,3.09,2.93,2.74,5.1-.36,2.22-2.22,3.75-5.16,4.22-6.1.95-12.01-.21-17.86-1.76-7.52-2-14.43-5.39-21.03-9.65-4.51,7.31-8.98,14.55-13.46,21.8.35.29.53.46.73.6,18.98,12.8,39.75,17.27,62.24,13.03,8-1.51,15.08-5.19,20.36-11.66,5.73-7.03,7.28-15.26,6.72-24.07-.48-7.53-3.76-13.57-9.62-18.26-4.72-3.78-10.13-6.27-15.8-8.18-6.65-2.24-13.37-4.26-20.05-6.4-1.92-.62-3.77-1.42-5.37-2.68-2.75-2.16-2.46-5.58.62-7.26,1.34-.73,2.81-1.05,4.33-1.12,6.92-.3,13.41,1.6,19.81,3.92,4.06,1.47,7.93,3.38,11.84,5.45,4.14-7.63,8.2-15.12,12.34-22.76"/>
</svg>
